{"asset":{"generator":"FBX2glTF v0.9.7","version":"2.0"},"scene":0,"buffers":[{"byteLength":66920,"uri":"data:application/octet-stream;base64,"}],"bufferViews":[{"buffer":0,"byteLength":144,"byteOffset":0,"target":34963},{"buffer":0,"byteLength":408,"byteOffset":144,"target":34962},{"buffer":0,"byteLength":408,"byteOffset":552,"target":34962},{"buffer":0,"byteLength":272,"byteOffset":960,"target":34962},{"buffer":0,"byteLength":3504,"byteOffset":1232,"target":34963},{"buffer":0,"byteLength":7668,"byteOffset":4736,"target":34962},{"buffer":0,"byteLength":7668,"byteOffset":12404,"target":34962},{"buffer":0,"byteLength":5112,"byteOffset":20072,"target":34962},{"buffer":0,"byteLength":2856,"byteOffset":25184,"target":34963},{"buffer":0,"byteLength":4800,"byteOffset":28040,"target":34962},{"buffer":0,"byteLength":4800,"byteOffset":32840,"target":34962},{"buffer":0,"byteLength":3200,"byteOffset":37640,"target":34962},{"buffer":0,"byteLength":1356,"byteOffset":40840,"target":34963},{"buffer":0,"byteLength":3576,"byteOffset":42196,"target":34962},{"buffer":0,"byteLength":3576,"byteOffset":45772,"target":34962},{"buffer":0,"byteLength":2384,"byteOffset":49348,"target":34962},{"buffer":0,"byteLength":72,"byteOffset":51732,"target":34963},{"buffer":0,"byteLength":240,"byteOffset":51804,"target":34962},{"buffer":0,"byteLength":240,"byteOffset":52044,"target":34962},{"buffer":0,"byteLength":160,"byteOffset":52284,"target":34962},{"buffer":0,"byteLength":816,"byteOffset":52444,"target":34963},{"buffer":0,"byteLength":1872,"byteOffset":53260,"target":34962},{"buffer":0,"byteLength":1872,"byteOffset":55132,"target":34962},{"buffer":0,"byteLength":1248,"byteOffset":57004,"target":34962},{"buffer":0,"byteLength":396,"byteOffset":58252,"target":34963},{"buffer":0,"byteLength":912,"byteOffset":58648,"target":34962},{"buffer":0,"byteLength":912,"byteOffset":59560,"target":34962},{"buffer":0,"byteLength":608,"byteOffset":60472,"target":34962},{"buffer":0,"byteLength":720,"byteOffset":61080,"target":34963},{"buffer":0,"byteLength":1920,"byteOffset":61800,"target":34962},{"buffer":0,"byteLength":1920,"byteOffset":63720,"target":34962},{"buffer":0,"byteLength":1280,"byteOffset":65640,"target":34962}],"scenes":[{"name":"Root Scene","nodes":[0]}],"accessors":[{"componentType":5123,"type":"SCALAR","count":72,"bufferView":0,"byteOffset":0},{"componentType":5126,"type":"VEC3","count":34,"bufferView":1,"byteOffset":0,"min":[0.0132558923214674,-0.00580229144543409,0.000566432194318622],"max":[0.0141863096505404,0.00580229284241796,0.00153755955398083]},{"componentType":5126,"type":"VEC3","count":34,"bufferView":2,"byteOffset":0},{"componentType":5126,"type":"VEC2","count":34,"bufferView":3,"byteOffset":0},{"componentType":5123,"type":"SCALAR","count":1752,"bufferView":4,"byteOffset":0},{"componentType":5126,"type":"VEC3","count":639,"bufferView":5,"byteOffset":0,"min":[-0.0176260098814964,-0.00666908826678991,-0.00306231551803648],"max":[0.0152130136266351,0.00666908966377378,0.00599605496972799]},{"componentType":5126,"type":"VEC3","count":639,"bufferView":6,"byteOffset":0},{"componentType":5126,"type":"VEC2","count":639,"bufferView":7,"byteOffset":0},{"componentType":5123,"type":"SCALAR","count":1428,"bufferView":8,"byteOffset":0},{"componentType":5126,"type":"VEC3","count":400,"bufferView":9,"byteOffset":0,"min":[-0.0164693538099527,-0.00666908826678991,-0.00345109216868877],"max":[0.01489382609725,0.00666908966377378,0.000199466943740845]},{"componentType":5126,"type":"VEC3","count":400,"bufferView":10,"byteOffset":0},{"componentType":5126,"type":"VEC2","count":400,"bufferView":11,"byteOffset":0},{"componentType":5123,"type":"SCALAR","count":678,"bufferView":12,"byteOffset":0},{"componentType":5126,"type":"VEC3","count":298,"bufferView":13,"byteOffset":0,"min":[-0.0169458035379648,-0.00671036634594202,-0.000548099284060299],"max":[0.0144413094967604,0.00671036774292588,0.00561763998121023]},{"componentType":5126,"type":"VEC3","count":298,"bufferView":14,"byteOffset":0},{"componentType":5126,"type":"VEC2","count":298,"bufferView":15,"byteOffset":0},{"componentType":5123,"type":"SCALAR","count":36,"bufferView":16,"byteOffset":0},{"componentType":5126,"type":"VEC3","count":20,"bufferView":17,"byteOffset":0,"min":[-0.0165476333349943,-0.0056556616909802,-0.000571158539969474],"max":[-0.0144003825262189,0.00565566308796406,0.000374424445908517]},{"componentType":5126,"type":"VEC3","count":20,"bufferView":18,"byteOffset":0},{"componentType":5126,"type":"VEC2","count":20,"bufferView":19,"byteOffset":0},{"componentType":5123,"type":"SCALAR","count":408,"bufferView":20,"byteOffset":0},{"componentType":5126,"type":"VEC3","count":156,"bufferView":21,"byteOffset":0,"min":[-0.0170379523187876,-0.0065968744456768,-0.00345003651455045],"max":[0.00815432425588369,0.00659687584266067,0.00622863322496414]},{"componentType":5126,"type":"VEC3","count":156,"bufferView":22,"byteOffset":0},{"componentType":5126,"type":"VEC2","count":156,"bufferView":23,"byteOffset":0},{"componentType":5123,"type":"SCALAR","count":198,"bufferView":24,"byteOffset":0},{"componentType":5126,"type":"VEC3","count":76,"bufferView":25,"byteOffset":0,"min":[-0.0083892960101366,-0.00656757084652781,0.00213234056718647],"max":[0.0132563905790448,0.00656757224351168,0.00583106186240911]},{"componentType":5126,"type":"VEC3","count":76,"bufferView":26,"byteOffset":0},{"componentType":5126,"type":"VEC2","count":76,"bufferView":27,"byteOffset":0},{"componentType":5123,"type":"SCALAR","count":360,"bufferView":28,"byteOffset":0},{"componentType":5126,"type":"VEC3","count":160,"bufferView":29,"byteOffset":0,"min":[0.0115595431998372,-0.0047295861877501,-0.00309583428315818],"max":[0.0144459623843431,0.00472958805039525,-0.00228446465916932]},{"componentType":5126,"type":"VEC3","count":160,"bufferView":30,"byteOffset":0},{"componentType":5126,"type":"VEC2","count":160,"bufferView":31,"byteOffset":0}],"materials":[{"name":"Rear_lights","alphaMode":"OPAQUE","extras":{"fromFBX":{"shadingModel":"Phong","isTruePBR":false}},"pbrMetallicRoughness":{"baseColorFactor":[0.479336678981781,0.0,0.00577186699956656,1.0],"metallicFactor":0.400000005960464,"roughnessFactor":0.272165536880493}},{"name":"Car","alphaMode":"OPAQUE","extras":{"fromFBX":{"shadingModel":"Phong","isTruePBR":false}},"pbrMetallicRoughness":{"baseColorFactor":[1.0,0.000697597803082317,0.00647068955004215,1.0],"metallicFactor":0.400000005960464,"roughnessFactor":0.237134709954262}},{"name":"Under","alphaMode":"OPAQUE","extras":{"fromFBX":{"shadingModel":"Phong","isTruePBR":false}},"pbrMetallicRoughness":{"baseColorFactor":[0.160677745938301,0.160677745938301,0.160677745938301,1.0],"metallicFactor":0.400000005960464,"roughnessFactor":0.272165536880493}},{"name":"Det","alphaMode":"OPAQUE","extras":{"fromFBX":{"shadingModel":"Phong","isTruePBR":false}},"pbrMetallicRoughness":{"baseColorFactor":[0.0,0.0,0.0,1.0],"metallicFactor":0.400000005960464,"roughnessFactor":0.272165536880493}},{"name":"Headlights","alphaMode":"OPAQUE","extras":{"fromFBX":{"shadingModel":"Phong","isTruePBR":false}},"pbrMetallicRoughness":{"baseColorFactor":[1.0,1.0,1.0,1.0],"metallicFactor":0.400000005960464,"roughnessFactor":0.272165536880493}},{"name":"Det2","alphaMode":"OPAQUE","extras":{"fromFBX":{"shadingModel":"Phong","isTruePBR":false}},"pbrMetallicRoughness":{"baseColorFactor":[0.0,0.0,0.0,1.0],"metallicFactor":0.400000005960464,"roughnessFactor":0.175427585840225}},{"name":"Glass","alphaMode":"BLEND","extras":{"fromFBX":{"shadingModel":"Phong","isTruePBR":false}},"pbrMetallicRoughness":{"baseColorFactor":[0.522369742393494,1.0,1.0,0.3],"metallicFactor":0.400000005960464,"roughnessFactor":0.140028014779091}},{"name":"Exhaust","alphaMode":"OPAQUE","extras":{"fromFBX":{"shadingModel":"Phong","isTruePBR":false}},"pbrMetallicRoughness":{"baseColorFactor":[0.341561496257782,0.341561496257782,0.341561496257782,1.0],"metallicFactor":0.400000005960464,"roughnessFactor":0.272165536880493}}],"meshes":[{"name":"Cube","primitives":[{"material":0,"mode":4,"attributes":{"NORMAL":2,"POSITION":1,"TEXCOORD_0":3},"indices":0},{"material":1,"mode":4,"attributes":{"NORMAL":6,"POSITION":5,"TEXCOORD_0":7},"indices":4},{"material":2,"mode":4,"attributes":{"NORMAL":10,"POSITION":9,"TEXCOORD_0":11},"indices":8},{"material":3,"mode":4,"attributes":{"NORMAL":14,"POSITION":13,"TEXCOORD_0":15},"indices":12},{"material":4,"mode":4,"attributes":{"NORMAL":18,"POSITION":17,"TEXCOORD_0":19},"indices":16},{"material":5,"mode":4,"attributes":{"NORMAL":22,"POSITION":21,"TEXCOORD_0":23},"indices":20},{"material":6,"mode":4,"attributes":{"NORMAL":26,"POSITION":25,"TEXCOORD_0":27},"indices":24},{"material":7,"mode":4,"attributes":{"NORMAL":30,"POSITION":29,"TEXCOORD_0":31},"indices":28}]}],"nodes":[{"name":"RootNode","translation":[0.0,0.0,0.0],"rotation":[0.0,0.0,0.0,1.0],"scale":[1.0,1.0,1.0],"children":[1]},{"name":"Cube","translation":[0.0,0.399999976158142,7.75569972688572e-08],"rotation":[1.37678767941907e-07,0.707106828689575,0.70710676908493,-1.37678782152761e-07],"scale":[100.0,100.0,100.0],"mesh":0}]}